# xmcd
#
# Track frame offsets:
#	150
#	18035
#	31989
#	54815
#	80619
#	97748
#	112015
#	128981
#	142081
#	158496
#	177426
#	193536
#	210787
#	225503
#	242738
#	258956
#	273654
#	290017
#	304337
#	316149
#
# Disc length: 4431
#
# Revision: 2
# Processed by: cddbd v1.5.1PL0 Copyright (c) Steve Scherf et al.
# Submitted via: audiograbber 1.80
# Normalized: r1:DSETVAR1
#
DISCID=09114d14
DTITLE=Various Artist - Вечерний звон от Муз ТВ. (2001)
DYEAR=1900
DGENRE=
TTITLE0=Руки вверх and Акула. - Только для тебя.
TTITLE1=Stunmaster. - The Lady Boy Is Mine.
TTITLE2=Филипп Киркоров. - Ты поверишь. (Dj Haoz Rmx)
TTITLE3=A - ha.
TTITLE4=Тату. - Нас не догонят. (Dance Mix)
TTITLE5=Dj Mendez. - Cross The Border.
TTITLE6=Шао? Бао! and Легион. - Не верь.
TTITLE7=Antique. - Die For You.
TTITLE8=Алсу. - He Loves Me, He Loves Me Not.
TTITLE9=Plazma. - Fading Like A Rose.
TTITLE10=140 Ударов в минуту. - Не сходи с ума.
TTITLE11=Alcazar. - Crying At The Discoteque.
TTITLE12=Рахат. - Золотая монета.
TTITLE13=ATC. - Why Oh Why.
TTITLE14=Валдай. - Облака.
TTITLE15=E - Rotic.
TTITLE16=Шура. - Что случилось с нами.
TTITLE17=Dario G. - Never Too Late.
TTITLE18=Света. - Твои глаза.
TTITLE19=Carolina Marquez. - Ritmo.
EXTD=
EXTT0=
EXTT1=
EXTT2=
EXTT3=
EXTT4=
EXTT5=
EXTT6=
EXTT7=
EXTT8=
EXTT9=
EXTT10=
EXTT11=
EXTT12=
EXTT13=
EXTT14=
EXTT15=
EXTT16=
EXTT17=
EXTT18=
EXTT19=
PLAYORDER=
